<svg width="133" height="30" viewBox="0 0 133 30" fill="none" xmlns="http://www.w3.org/2000/svg">
<g clip-path="url(#clip0_14_4)">
<path d="M27.7471 22.4467C26.4145 21.5907 24.6311 21.7765 23.3017 22.8761L22.8632 22.5945C22.9905 22.2972 23.0969 21.9923 23.1818 21.6827C24.7286 21.2938 25.7535 20.4776 26.0815 19.3655V19.3657C26.3813 18.3492 26.1051 17.3911 25.8206 16.7667C25.1861 15.3715 24.0273 14.1321 22.2889 12.9911C23.394 11.8021 23.9687 10.275 23.9687 8.48717C23.9687 7.35947 23.7419 6.27159 23.2935 5.24551C23.7488 5.12856 24.1893 4.97154 24.5718 4.78798C25.2383 4.46777 25.659 4.10202 25.8215 3.70079C26.0138 3.22632 25.9206 2.33002 25.0252 1.36574C24.6437 0.954666 24.1983 0.637436 23.7373 0.448151C23.1841 0.2211 22.6222 0.187683 22.112 0.351562C21.4721 0.557327 20.8555 1.04828 20.3981 1.70197C18.8555 0.601273 16.9674 0 15.0281 0C13.0886 0 11.2005 0.601273 9.65787 1.70197C9.20056 1.04828 8.58396 0.557327 7.94377 0.351562C7.4336 0.187683 6.87169 0.2211 6.31871 0.448151C5.85775 0.637436 5.41234 0.954666 5.0308 1.36574C4.13541 2.33002 4.04225 3.22632 4.23452 3.70079C4.39725 4.10202 4.81771 4.46777 5.48444 4.78798C5.8669 4.97154 6.3075 5.12856 6.76297 5.24551C6.5817 5.66162 6.43567 6.09123 6.32718 6.5284C6.26859 6.76392 6.41233 7.00241 6.64785 7.06078C6.88314 7.11937 7.12163 6.97586 7.18022 6.74011C7.31732 6.18759 7.52194 5.64835 7.78791 5.13748C7.85268 5.01343 7.85428 4.86603 7.79271 4.74037C7.73091 4.61494 7.61327 4.52637 7.47548 4.50165C6.22533 4.27872 5.19353 3.72665 5.04911 3.37074C4.94977 3.12538 5.1608 2.51747 5.67487 1.96381C6.16513 1.43578 6.94791 0.954895 7.67507 1.18835C8.23857 1.3694 8.78995 1.87889 9.15021 2.55135C9.21201 2.66647 9.32164 2.74818 9.44959 2.77428C9.57776 2.8006 9.71074 2.76833 9.81259 2.68661C11.2662 1.52092 13.1186 0.878906 15.0281 0.878906C16.9375 0.878906 18.7898 1.52092 20.2437 2.68684C20.3455 2.76855 20.4785 2.80083 20.6067 2.77451C20.7346 2.74841 20.8442 2.6667 20.906 2.55135C21.2663 1.87912 21.8177 1.3694 22.381 1.18835C23.1083 0.954895 23.8911 1.43578 24.3812 1.96381C24.8954 2.5177 25.1065 3.12538 25.0069 3.37074C24.8627 3.72665 23.8309 4.27872 22.5808 4.50188C22.443 4.52637 22.3253 4.61494 22.2635 4.74037C22.2017 4.86603 22.2036 5.0132 22.2681 5.13725C22.8133 6.18484 23.0898 7.31186 23.0898 8.48717C23.0898 10.21 22.4766 11.654 21.3022 12.7277C21.2974 12.7318 21.2924 12.7359 21.2876 12.7405C21.0523 12.9549 20.7914 13.1564 20.5117 13.3388C20.5073 13.3415 20.5032 13.3445 20.4989 13.3475C20.4819 13.3587 20.4648 13.3697 20.4476 13.3807C20.1494 13.2122 19.8275 13.0806 19.4861 12.9909C17.856 12.5613 15.9979 13.2358 15.0281 14.5466C14.0588 13.236 12.2003 12.5613 10.5702 12.9909C10.2287 13.0806 9.90689 13.2122 9.60866 13.3807C9.59149 13.3699 9.57456 13.3589 9.55762 13.3479C9.55327 13.3447 9.54892 13.3418 9.54434 13.3388C9.26488 13.1561 9.00373 12.9549 8.76843 12.7405C8.76363 12.7361 8.75882 12.7318 8.75401 12.7279C7.57962 11.6542 6.96645 10.2102 6.96645 8.48717C6.96645 8.24455 6.76961 8.04771 6.527 8.04771C6.28415 8.04771 6.08754 8.24455 6.08754 8.48717C6.08754 10.2752 6.66204 11.8023 7.76731 12.9913C6.02735 14.1337 4.86966 15.3722 4.23543 16.7665C3.95093 17.3914 3.67467 18.3495 3.97473 19.3657C4.30249 20.4776 5.32765 21.2938 6.87421 21.6827C6.95912 21.9923 7.06578 22.2972 7.19304 22.5945L6.7545 22.8763C5.42516 21.7765 3.64148 21.5909 2.30893 22.4467C0.580417 23.557 0.185138 26.0344 1.42774 27.9691C2.25263 29.2522 3.61127 30 4.96236 30C5.30065 30 5.63642 29.9529 5.96097 29.856C5.96212 29.8558 5.96326 29.8553 5.9644 29.8551C5.96898 29.8537 5.97333 29.8524 5.97768 29.851C5.98226 29.8496 5.98661 29.8483 5.99118 29.8469C5.99279 29.8464 5.99439 29.846 5.99599 29.8455C6.28095 29.7572 6.55652 29.6306 6.81653 29.4635L11.2413 26.6208C13.6164 27.7011 16.4394 27.7011 18.8147 26.6208L23.2395 29.4635C23.5075 29.6356 23.792 29.7649 24.0859 29.8533H24.0861C24.0948 29.856 24.1035 29.8586 24.1122 29.8613C24.1195 29.8634 24.1271 29.8654 24.1344 29.8677C24.1353 29.8679 24.1365 29.8682 24.1374 29.8684C24.4487 29.957 24.77 30 25.0937 30C26.4557 30 27.8096 29.2429 28.6283 27.9689C29.8711 26.0342 29.4758 23.5567 27.7471 22.4467ZM25.0206 17.1307C25.2431 17.6193 25.4617 18.3604 25.2385 19.1169C25.2385 19.1169 25.2385 19.1169 25.2383 19.1169C24.8998 20.2652 23.5215 20.7175 22.7298 20.885C21.194 21.2103 18.6074 21.0768 18.362 19.5339C18.2599 18.8937 18.7507 18.2542 19.3128 17.9835C20.2054 17.5539 21.812 17.4321 22.8511 17.9844C23.0655 18.0984 23.3315 18.0169 23.4455 17.8024C23.5592 17.5882 23.478 17.322 23.2635 17.2083C23.1601 17.1531 23.0534 17.1034 22.9442 17.0588C22.5837 15.9306 22.0431 14.8208 21.3647 13.8155C21.4547 13.7487 21.5423 13.6803 21.6277 13.6105C23.3249 14.6919 24.4363 15.8455 25.0206 17.1307ZM10.794 13.8407C12.1937 13.4718 13.8677 14.1669 14.525 15.3896C14.6246 15.5759 14.8173 15.6917 15.0281 15.6917C15.2387 15.6917 15.4314 15.5759 15.5305 15.3905C16.1883 14.1669 17.8624 13.4718 19.2622 13.8407C20.0113 14.0378 20.6467 14.4855 21.0997 15.1355C21.4224 15.5985 21.6492 16.1629 21.7591 16.7645C20.7298 16.6479 19.6504 16.8455 18.9315 17.1913C18.0858 17.5987 17.3206 18.5815 17.4941 19.6719C17.6575 20.6998 18.4453 21.4117 19.7184 21.7266C18.0132 23.4487 15.7086 25.0523 15.0281 25.5125C14.3472 25.052 12.043 23.4487 10.3379 21.7266C11.6109 21.4117 12.3987 20.6998 12.5622 19.6719C12.7356 18.5815 11.9703 17.5987 11.1245 17.1913C10.4024 16.8439 9.3221 16.6486 8.29694 16.7642C8.40703 16.1627 8.63385 15.5985 8.95635 15.1357C9.40953 14.4855 10.0447 14.0378 10.794 13.8407ZM4.81748 19.1169C4.59432 18.3607 4.8129 17.6193 5.03537 17.1304C5.61971 15.8455 6.73116 14.6919 8.42809 13.6105C8.51346 13.6803 8.60112 13.7487 8.69084 13.8153C8.0129 14.8192 7.47228 15.929 7.11133 17.0588C7.00238 17.1034 6.89572 17.1531 6.79227 17.208C6.57804 17.322 6.49655 17.5882 6.61054 17.8024C6.72429 18.0167 6.99025 18.0981 7.20471 17.9842C8.24407 17.4319 9.85059 17.5539 10.743 17.9835C11.2825 18.2433 11.7988 18.875 11.694 19.5341C11.4484 21.0757 8.8545 21.2086 7.32602 20.8848C6.53455 20.7175 5.15622 20.2654 4.81748 19.1169ZM6.03765 28.8902C5.86026 28.9719 5.67578 29.0316 5.48696 29.0698C5.48558 29.0701 5.48444 29.0705 5.48307 29.0707C5.47528 29.0721 5.46727 29.0737 5.45949 29.0753C5.45583 29.076 5.4524 29.0767 5.44873 29.0774C5.44461 29.0781 5.44049 29.0788 5.43637 29.0794C5.42813 29.081 5.41989 29.0824 5.41165 29.084L5.40982 29.0842C4.33477 29.2683 3.14916 28.7759 2.37256 27.7819C1.77838 26.6064 2.03382 25.2736 2.97406 24.6696C3.99694 24.0122 5.46338 24.4647 6.24295 25.6783C6.9534 26.7842 6.86231 28.1536 6.03765 28.8902ZM18.6538 25.7247C17.5499 26.2663 16.2961 26.5524 15.0281 26.5524C13.7599 26.5524 12.5061 26.2663 11.4022 25.7247C11.2642 25.6572 11.1005 25.6666 10.9712 25.7497L7.52332 27.9648C7.71398 27.0779 7.54163 26.0735 6.98247 25.2031C5.94106 23.5822 3.92964 23.0109 2.4989 23.9301C2.16703 24.1434 1.89397 24.4178 1.68386 24.7341C1.85254 24.0992 2.2247 23.5455 2.78386 23.1862C3.86167 22.494 5.35077 22.7229 6.40546 23.7424C6.55217 23.884 6.77671 23.9062 6.94837 23.7962L7.98955 23.1276C8.17815 23.0065 8.24544 22.7632 8.14588 22.5627C8.03258 22.3338 7.93347 22.0988 7.8497 21.8596C8.31662 21.9138 8.77255 21.925 9.2777 21.8887C11.106 23.8843 13.8292 25.7682 14.6379 26.3095C14.7564 26.3887 14.8922 26.4285 15.0281 26.4285C15.1641 26.4285 15.2998 26.3887 15.4186 26.3095C16.227 25.7682 18.9502 23.8843 20.7786 21.8887C21.2832 21.925 21.7392 21.9138 22.2065 21.8596C22.1225 22.0988 22.0237 22.3338 21.9104 22.5627C21.8108 22.7632 21.8783 23.0065 22.0667 23.1276L23.1079 23.7962C23.2793 23.9062 23.5041 23.884 23.6508 23.7424C24.7055 22.7229 26.1946 22.494 27.2722 23.1862C27.8315 23.5455 28.2037 24.0992 28.3724 24.7343C28.1623 24.4178 27.8892 24.1434 27.5573 23.9301C27.353 23.7989 27.0813 23.858 26.9499 24.0623C26.8187 24.2665 26.878 24.5384 27.0822 24.6696C28.0224 25.2736 28.2776 26.6064 27.6837 27.7819C26.9032 28.7807 25.6963 29.287 24.5938 29.0746C24.5883 29.0737 24.583 29.0726 24.5775 29.0714C24.5734 29.0707 24.5691 29.0698 24.5649 29.0689C24.5578 29.0675 24.5508 29.0659 24.5437 29.0646C24.5427 29.0643 24.5418 29.0641 24.5409 29.0639C24.3619 29.0254 24.1871 28.9677 24.0184 28.8902C23.1937 28.1536 23.1026 26.784 23.8131 25.6783C24.2218 25.0422 24.8433 24.5867 25.5187 24.4286C25.7549 24.3732 25.9016 24.1367 25.8465 23.9005C25.7911 23.6641 25.5544 23.5174 25.3182 23.5728C24.4226 23.7827 23.6046 24.3768 23.0738 25.2031C22.5146 26.0735 22.3423 27.0779 22.5327 27.9648L19.0848 25.7497C18.9555 25.6664 18.7921 25.6572 18.6538 25.7247Z" fill="#3A230B"/>
<path d="M18.7278 6.14691V5.80908C18.7278 5.56647 18.5309 5.36963 18.2883 5.36963C18.0455 5.36963 17.8489 5.56647 17.8489 5.80908V6.14691C17.8489 6.38976 18.0455 6.58636 18.2883 6.58636C18.5309 6.58636 18.7278 6.38976 18.7278 6.14691Z" fill="#3A230B"/>
<path d="M11.7679 5.36963C11.5251 5.36963 11.3285 5.56647 11.3285 5.80908V6.14691C11.3285 6.38976 11.5251 6.58636 11.7679 6.58636C12.0106 6.58636 12.2074 6.38976 12.2074 6.14691V5.80908C12.2074 5.56647 12.0106 5.36963 11.7679 5.36963Z" fill="#3A230B"/>
<path d="M15.0282 6.76172C13.0948 6.76172 11.5222 8.19864 11.5222 9.96492C11.5222 10.8356 11.898 11.5566 12.6091 12.0498C13.2294 12.4801 14.0657 12.7076 15.0282 12.7076C15.9904 12.7076 16.827 12.4801 17.447 12.0498C18.1581 11.5566 18.5342 10.8356 18.5342 9.96492C18.5342 8.19864 16.9613 6.76172 15.0282 6.76172ZM16.0227 8.5383C16.0227 8.96906 15.1298 8.98164 15.0282 8.98164C14.9263 8.98164 14.0334 8.96906 14.0334 8.5383C14.0334 8.04277 14.6352 7.64062 15.0282 7.64062C15.4209 7.64062 16.0227 8.04277 16.0227 8.5383ZM15.0282 11.8287C13.0911 11.8287 12.4011 10.8658 12.4011 9.96492C12.4011 9.32336 12.6963 8.74178 13.1729 8.32086C13.1607 8.39388 13.1545 8.46643 13.1545 8.53807C13.1545 9.23273 13.7043 9.71475 14.5885 9.8324V10.8042C14.5885 11.0468 14.7853 11.2437 15.0279 11.2437C15.2708 11.2437 15.4674 11.0468 15.4674 10.8042V9.8324C16.3518 9.71475 16.9016 9.23273 16.9016 8.53807C16.9016 8.46643 16.8956 8.3941 16.8842 8.32155C17.3602 8.74246 17.655 9.32382 17.655 9.96469C17.655 10.8658 16.965 11.8287 15.0282 11.8287Z" fill="#3A230B"/>
</g>
<path d="M44.6289 10.8555C43.9453 10.8555 43.2373 10.8115 42.5049 10.7236C41.7822 10.626 41.0889 10.5234 40.4248 10.416C40.3369 10.4355 40.2686 10.4258 40.2197 10.3867C40.1709 10.3379 40.1318 10.2793 40.1025 10.2109C40.0732 10.1328 40.0537 10.0596 40.0439 9.99121C40.0439 9.92285 40.0439 9.86914 40.0439 9.83008C40.1904 9.83008 40.4443 9.83008 40.8057 9.83008C41.167 9.83008 41.5918 9.83496 42.0801 9.84473C42.5781 9.85449 43.1152 9.86914 43.6914 9.88867C44.2773 9.9082 44.8633 9.9375 45.4492 9.97656C46.0352 10.0156 46.6016 10.0645 47.1484 10.123C47.6953 10.1719 48.1787 10.2402 48.5986 10.3281C49.0283 10.4062 49.3652 10.499 49.6094 10.6064C49.8633 10.7139 49.9902 10.8359 49.9902 10.9727C49.9902 11.0703 49.9756 11.168 49.9463 11.2656C49.917 11.3633 49.8438 11.4121 49.7266 11.4121C49.3652 11.3926 49.0088 11.3389 48.6572 11.251C48.3057 11.1631 47.9541 11.0801 47.6025 11.002C47.251 10.9141 46.8896 10.8555 46.5186 10.8262C46.1572 10.7871 45.7861 10.8262 45.4053 10.9434C45.4053 11.3926 45.4297 11.8857 45.4785 12.4229C45.5371 12.96 45.6006 13.5068 45.6689 14.0635C45.7471 14.6201 45.8301 15.1768 45.918 15.7334C46.0156 16.29 46.1084 16.8125 46.1963 17.3008C46.2158 17.4277 46.2549 17.5547 46.3135 17.6816C46.3818 17.7988 46.4502 17.916 46.5186 18.0332C46.5869 18.1406 46.6455 18.2529 46.6943 18.3701C46.7432 18.4873 46.7676 18.6045 46.7676 18.7217C46.7676 18.7998 46.7432 18.8633 46.6943 18.9121C46.6455 18.9512 46.5869 18.9805 46.5186 19C46.4502 19.0098 46.377 19.0146 46.2988 19.0146C46.2207 19.0146 46.1572 19.0146 46.1084 19.0146C45.9131 19.0146 45.7568 18.9365 45.6396 18.7803C45.5322 18.624 45.4492 18.4434 45.3906 18.2383C45.332 18.0234 45.293 17.8037 45.2734 17.5791C45.2539 17.3545 45.2344 17.1738 45.2148 17.0371C45.1367 16.5 45.0684 15.9824 45.0098 15.4844C44.9512 14.9766 44.8975 14.4736 44.8486 13.9756C44.8096 13.4678 44.7705 12.96 44.7314 12.4521C44.7021 11.9346 44.668 11.4023 44.6289 10.8555ZM48.9941 16.0117C48.9941 15.4746 49.1113 15.0059 49.3457 14.6055C49.5801 14.2051 49.8877 13.8682 50.2686 13.5947C50.6494 13.3213 51.0742 13.1211 51.543 12.9941C52.0215 12.8574 52.5 12.7891 52.9785 12.7891C53.2324 12.7891 53.4668 12.8379 53.6816 12.9355C53.9062 13.0234 54.1162 13.1504 54.3115 13.3164C54.5166 13.4727 54.6973 13.6582 54.8535 13.873C55.0098 14.0781 55.1416 14.293 55.249 14.5176C55.3662 14.7422 55.4541 14.9717 55.5127 15.2061C55.5713 15.4307 55.6006 15.6504 55.6006 15.8652C55.6006 16.3633 55.5029 16.8076 55.3076 17.1982C55.1123 17.5889 54.8486 17.9209 54.5166 18.1943C54.1846 18.458 53.8086 18.6631 53.3887 18.8096C52.9688 18.9463 52.5391 19.0146 52.0996 19.0146C51.6504 19.0146 51.2354 18.9463 50.8545 18.8096C50.4834 18.6631 50.1562 18.4629 49.873 18.209C49.5996 17.9551 49.3848 17.6426 49.2285 17.2715C49.0723 16.8906 48.9941 16.4707 48.9941 16.0117ZM49.7119 15.8945C49.7119 16.1973 49.7656 16.4902 49.873 16.7734C49.9902 17.0469 50.1465 17.2861 50.3418 17.4912C50.5469 17.6963 50.7861 17.8623 51.0596 17.9893C51.333 18.1064 51.626 18.165 51.9385 18.165C52.1045 18.1846 52.3047 18.1602 52.5391 18.0918C52.7832 18.0137 53.0225 17.9062 53.2568 17.7695C53.501 17.623 53.7305 17.4521 53.9453 17.2568C54.1699 17.0518 54.3555 16.832 54.502 16.5977C54.6484 16.3535 54.7363 16.1045 54.7656 15.8506C54.8047 15.5869 54.7607 15.3281 54.6338 15.0742C54.5166 14.8105 54.2969 14.5615 53.9746 14.3271C53.6523 14.083 53.208 13.8584 52.6416 13.6533C52.3193 13.6533 51.9824 13.7021 51.6309 13.7998C51.2891 13.8877 50.9766 14.0244 50.6934 14.21C50.4102 14.3955 50.1758 14.6299 49.9902 14.9131C49.8047 15.1963 49.7119 15.5234 49.7119 15.8945ZM56.6992 23.5703C56.6992 23.502 56.6992 23.4336 56.6992 23.3652C56.6992 23.3066 56.709 23.2529 56.7285 23.2041C56.748 23.165 56.7773 23.1309 56.8164 23.1016C56.875 23.082 56.9434 23.0723 57.0215 23.0723C57.168 23.2383 57.3535 23.4482 57.5781 23.7021C57.8125 23.9658 58.0762 24.2197 58.3691 24.4639C58.6621 24.708 58.9697 24.9229 59.292 25.1084C59.6143 25.2939 59.9414 25.3867 60.2734 25.3867C60.5469 25.377 60.7812 25.3037 60.9766 25.167C61.1719 25.04 61.3379 24.8691 61.4746 24.6543C61.6113 24.4395 61.7236 24.1953 61.8115 23.9219C61.8994 23.6484 61.9678 23.3701 62.0166 23.0869C62.0752 22.8037 62.1143 22.5303 62.1338 22.2666C62.1631 22.0029 62.1924 21.7734 62.2217 21.5781C62.2412 21.4805 62.2607 21.3145 62.2803 21.0801C62.3096 20.8555 62.334 20.6016 62.3535 20.3184C62.3828 20.0449 62.4023 19.7568 62.4121 19.4541C62.4316 19.1514 62.4316 18.8779 62.4121 18.6338C62.3926 18.3799 62.3535 18.1748 62.2949 18.0186C62.2363 17.8525 62.1484 17.7695 62.0312 17.7695C61.8652 17.7695 61.6895 17.8184 61.5039 17.916C61.3184 18.0137 61.123 18.126 60.918 18.2529C60.7227 18.3701 60.5225 18.4775 60.3174 18.5752C60.1123 18.6729 59.9121 18.7217 59.7168 18.7217C59.3457 18.7217 59.0039 18.6484 58.6914 18.502C58.3887 18.3457 58.1104 18.1455 57.8564 17.9014C57.6025 17.6572 57.3779 17.374 57.1826 17.0518C56.9873 16.7197 56.8213 16.3779 56.6846 16.0264C56.5576 15.6748 56.46 15.3232 56.3916 14.9717C56.333 14.6201 56.3037 14.2881 56.3037 13.9756C56.3037 13.9072 56.2939 13.7949 56.2744 13.6387C56.2646 13.4824 56.2695 13.3213 56.2891 13.1553C56.3086 12.9893 56.3525 12.8428 56.4209 12.7158C56.4893 12.5889 56.5967 12.5254 56.7432 12.5254C56.7822 12.5254 56.8115 12.6035 56.8311 12.7598C56.8604 12.916 56.8896 13.1211 56.9189 13.375C56.958 13.6191 57.002 13.9023 57.0508 14.2246C57.1094 14.5469 57.1826 14.874 57.2705 15.2061C57.3584 15.5381 57.4658 15.8652 57.5928 16.1875C57.7197 16.5098 57.876 16.7979 58.0615 17.0518C58.2471 17.2959 58.4668 17.4961 58.7207 17.6523C58.9844 17.8086 59.2822 17.8867 59.6143 17.8867C59.8291 17.8867 60.0537 17.8428 60.2881 17.7549C60.5225 17.6572 60.7422 17.5352 60.9473 17.3887C61.1621 17.2422 61.3574 17.0762 61.5332 16.8906C61.709 16.6953 61.8457 16.5049 61.9434 16.3193C61.9434 16.2803 61.9385 16.1875 61.9287 16.041C61.9189 15.8945 61.9092 15.7285 61.8994 15.543C61.8896 15.3477 61.8799 15.1377 61.8701 14.9131C61.8604 14.6885 61.8506 14.4785 61.8408 14.2832C61.8311 14.0781 61.8213 13.9023 61.8115 13.7559C61.8115 13.6094 61.8115 13.5166 61.8115 13.4775C61.8311 12.8818 61.875 12.5205 61.9434 12.3936C62.0117 12.2568 62.0947 12.2959 62.1924 12.5107C62.29 12.7256 62.3926 13.0869 62.5 13.5947C62.6074 14.1025 62.7051 14.6982 62.793 15.3818C62.8906 16.0557 62.9639 16.793 63.0127 17.5938C63.0713 18.3945 63.0957 19.1953 63.0859 19.9961C63.0762 20.8066 63.0225 21.5879 62.9248 22.3398C62.8369 23.0918 62.6904 23.7559 62.4854 24.332C62.2803 24.918 62.0117 25.3916 61.6797 25.7529C61.3477 26.1143 60.9375 26.3047 60.4492 26.3242C60.2539 26.3242 60.0195 26.2852 59.7461 26.207C59.4824 26.1387 59.2139 26.041 58.9404 25.9141C58.667 25.7871 58.3936 25.6357 58.1201 25.46C57.8564 25.2842 57.6172 25.0938 57.4023 24.8887C57.1973 24.6836 57.0264 24.4688 56.8896 24.2441C56.7627 24.0195 56.6992 23.7949 56.6992 23.5703ZM63.584 17.2275C63.6621 17.1689 63.7305 17.1348 63.7891 17.125C63.8574 17.1055 63.9307 17.0957 64.0088 17.0957C64.0967 17.0957 64.1846 17.1201 64.2725 17.1689C64.3604 17.208 64.4385 17.2617 64.5068 17.3301C64.585 17.3887 64.6631 17.4473 64.7412 17.5059C64.8193 17.5645 64.9023 17.6133 64.9902 17.6523C65.2441 17.7598 65.4443 17.8477 65.5908 17.916C65.7471 17.9844 65.8887 18.0381 66.0156 18.0771C66.1426 18.1162 66.2891 18.1406 66.4551 18.1504C66.6211 18.1602 66.8359 18.165 67.0996 18.165C67.3047 18.165 67.5537 18.1699 67.8467 18.1797C68.1396 18.1797 68.418 18.1553 68.6816 18.1064C68.9453 18.0479 69.1699 17.9502 69.3555 17.8135C69.541 17.667 69.6338 17.4473 69.6338 17.1543C69.6436 16.8711 69.5654 16.6514 69.3994 16.4951C69.2432 16.3291 69.0283 16.2021 68.7549 16.1143C68.4814 16.0264 68.1738 15.9678 67.832 15.9385C67.4902 15.8994 67.1387 15.8604 66.7773 15.8213C66.416 15.7822 66.0596 15.7285 65.708 15.6602C65.3662 15.582 65.0586 15.4648 64.7852 15.3086C64.5117 15.1523 64.292 14.9375 64.126 14.6641C63.96 14.3906 63.8721 14.0391 63.8623 13.6094C63.9209 13.2969 64.0723 13.0381 64.3164 12.833C64.5703 12.6182 64.8682 12.457 65.21 12.3496C65.5615 12.2324 65.9326 12.1738 66.3232 12.1738C66.7139 12.1641 67.0703 12.2129 67.3926 12.3203C67.7246 12.418 67.998 12.5791 68.2129 12.8037C68.4375 13.0283 68.5547 13.3066 68.5645 13.6387C68.584 13.834 68.5693 13.9951 68.5205 14.1221C68.4717 14.249 68.4033 14.3467 68.3154 14.415C68.2373 14.4736 68.1543 14.5029 68.0664 14.5029C67.9785 14.4932 67.9102 14.459 67.8613 14.4004C67.8125 14.332 67.7881 14.2393 67.7881 14.1221C67.7979 13.9951 67.8564 13.8389 67.9639 13.6533C67.9248 13.4678 67.8125 13.3213 67.627 13.2139C67.4414 13.1064 67.2266 13.0332 66.9824 12.9941C66.7383 12.9453 66.4746 12.9355 66.1914 12.9648C65.918 12.9844 65.6641 13.0332 65.4297 13.1113C65.2051 13.1895 65.0195 13.292 64.873 13.4189C64.7363 13.5459 64.6777 13.6924 64.6973 13.8584C64.6973 14.1514 64.7803 14.3809 64.9463 14.5469C65.1221 14.7031 65.3467 14.8252 65.6201 14.9131C65.8936 15.001 66.2061 15.0645 66.5576 15.1035C66.9189 15.1426 67.2852 15.1816 67.6562 15.2207C68.0371 15.25 68.4033 15.2988 68.7549 15.3672C69.1064 15.4258 69.4238 15.5283 69.707 15.6748C69.9902 15.8213 70.2148 16.0215 70.3809 16.2754C70.5469 16.5195 70.6299 16.8418 70.6299 17.2422C70.6299 17.5449 70.5518 17.8086 70.3955 18.0332C70.2393 18.248 70.0391 18.4287 69.7949 18.5752C69.5605 18.7217 69.3018 18.8291 69.0186 18.8975C68.7354 18.9658 68.4668 19 68.2129 19C67.959 19 67.6855 19 67.3926 19C67.1094 18.9902 66.8164 18.9707 66.5137 18.9414C66.2207 18.9121 65.9229 18.8682 65.6201 18.8096C65.3174 18.7412 65.0342 18.6436 64.7705 18.5166C64.5166 18.3799 64.2871 18.209 64.082 18.0039C63.877 17.7988 63.7109 17.54 63.584 17.2275ZM81.748 17.5938C81.3574 18.1211 80.9619 18.4922 80.5615 18.707C80.1709 18.9121 79.7949 19.0049 79.4336 18.9854C79.082 18.9561 78.7451 18.8242 78.4229 18.5898C78.1104 18.3555 77.8369 18.0625 77.6025 17.7109C77.3779 17.3594 77.1924 16.9639 77.0459 16.5244C76.9092 16.0752 76.8359 15.6211 76.8262 15.1621C76.8164 14.7031 76.875 14.2588 77.002 13.8291C77.1387 13.3896 77.3633 12.999 77.6758 12.6572C77.832 12.7158 77.9199 12.7939 77.9395 12.8916C77.959 12.999 77.9688 13.1113 77.9688 13.2285C77.9688 13.3945 77.9492 13.5557 77.9102 13.7119C77.8809 13.8584 77.8467 14.0098 77.8076 14.166C77.7686 14.3223 77.7295 14.4834 77.6904 14.6494C77.6611 14.8154 77.6465 14.9863 77.6465 15.1621C77.6465 15.2891 77.6611 15.4502 77.6904 15.6455C77.7197 15.8311 77.7588 16.0312 77.8076 16.2461C77.8662 16.4609 77.9395 16.6758 78.0273 16.8906C78.1152 17.0957 78.2178 17.2861 78.335 17.4619C78.4619 17.6279 78.5986 17.7695 78.7451 17.8867C78.8916 17.9941 79.0576 18.0479 79.2432 18.0479C79.4092 18.0479 79.6045 17.999 79.8291 17.9014C80.0635 17.7939 80.2832 17.6621 80.4883 17.5059C80.7031 17.3496 80.8789 17.1738 81.0156 16.9785C81.1621 16.7832 81.2354 16.5879 81.2354 16.3926L81.3232 14.4883C81.3232 14.459 81.3428 14.4297 81.3818 14.4004C81.4209 14.3711 81.46 14.3467 81.499 14.3271C81.5479 14.2979 81.5967 14.2734 81.6455 14.2539C81.6943 14.2344 81.7285 14.2246 81.748 14.2246C81.8848 14.2246 81.9775 14.3125 82.0264 14.4883C82.0752 14.6641 82.1143 14.8936 82.1436 15.1768C82.1729 15.4502 82.207 15.7432 82.2461 16.0557C82.2852 16.3682 82.3535 16.666 82.4512 16.9492C82.5586 17.2227 82.7148 17.4473 82.9199 17.623C83.1152 17.7988 83.3984 17.8867 83.7695 17.8867C84.1309 17.877 84.4189 17.8037 84.6338 17.667C84.8486 17.5205 85.0049 17.3301 85.1025 17.0957C85.2002 16.8613 85.2441 16.6025 85.2344 16.3193C85.2344 16.0264 85.1953 15.7383 85.1172 15.4551C85.0488 15.1621 84.9512 14.8838 84.8242 14.6201C84.707 14.3564 84.5752 14.127 84.4287 13.9316C84.4092 13.8535 84.4092 13.7998 84.4287 13.7705C84.4482 13.7314 84.4727 13.707 84.502 13.6973C84.541 13.6777 84.585 13.668 84.6338 13.668C84.6826 13.6582 84.7217 13.6533 84.751 13.6533C84.9072 13.6924 85.0732 13.8242 85.249 14.0488C85.4346 14.2637 85.5957 14.5225 85.7324 14.8252C85.8691 15.1279 85.9717 15.4648 86.04 15.8359C86.1182 16.207 86.1377 16.5732 86.0986 16.9346C86.0693 17.2959 85.9668 17.6328 85.791 17.9453C85.6152 18.2578 85.3467 18.5117 84.9854 18.707C84.5557 18.7363 84.2041 18.7559 83.9307 18.7656C83.6572 18.7656 83.4277 18.7559 83.2422 18.7363C83.0664 18.707 82.9248 18.6631 82.8174 18.6045C82.71 18.5459 82.6074 18.4727 82.5098 18.3848C82.4121 18.2871 82.3047 18.1748 82.1875 18.0479C82.0801 17.9209 81.9336 17.7695 81.748 17.5938ZM87.4463 13.9316C87.4463 13.8926 87.4463 13.8193 87.4463 13.7119C87.4463 13.6045 87.4463 13.4922 87.4463 13.375C87.4561 13.2578 87.4609 13.1455 87.4609 13.0381C87.4609 12.9307 87.4609 12.8574 87.4609 12.8184C87.4219 12.5156 87.5098 12.3643 87.7246 12.3643C87.8223 12.3643 87.9053 12.3887 87.9736 12.4375C88.042 12.4863 88.1055 12.5596 88.1641 12.6572C88.1348 13.165 88.1543 13.6582 88.2227 14.1367C88.3008 14.6055 88.3838 15.0742 88.4717 15.543C88.5693 16.002 88.6572 16.4658 88.7354 16.9346C88.8232 17.4033 88.8672 17.8916 88.8672 18.3994C88.8672 18.5361 88.8232 18.6729 88.7354 18.8096C88.6572 18.9463 88.5352 19.0146 88.3691 19.0146C88.2422 19.0146 88.1299 18.9072 88.0322 18.6924C87.9443 18.4678 87.8662 18.1895 87.7979 17.8574C87.7295 17.5156 87.6709 17.1396 87.6221 16.7295C87.5732 16.3193 87.5342 15.9287 87.5049 15.5576C87.4854 15.1768 87.4707 14.8398 87.4609 14.5469C87.4512 14.2441 87.4463 14.0391 87.4463 13.9316ZM86.6992 10.2549C86.6992 10.1377 86.7334 10.0645 86.8018 10.0352C86.8701 9.99609 86.958 9.97656 87.0654 9.97656C87.1338 9.9668 87.2217 10.0107 87.3291 10.1084C87.4463 10.1963 87.5391 10.2988 87.6074 10.416C87.6855 10.5332 87.7295 10.6406 87.7393 10.7383C87.749 10.8555 87.6758 10.9238 87.5195 10.9434H87.4463C87.2998 10.9434 87.1777 10.9336 87.0801 10.9141C86.9824 10.8945 86.9043 10.8652 86.8457 10.8262C86.7969 10.7773 86.7578 10.709 86.7285 10.6211C86.709 10.5332 86.6992 10.4111 86.6992 10.2549ZM91.1377 13.9609C91.0596 13.9609 90.9229 13.9609 90.7275 13.9609C90.5322 13.9609 90.3271 13.9463 90.1123 13.917C89.9072 13.8779 89.7168 13.8193 89.541 13.7412C89.375 13.6631 89.292 13.5508 89.292 13.4043C89.292 13.3652 89.2969 13.3115 89.3066 13.2432C89.3262 13.165 89.375 13.126 89.4531 13.126L90.9619 12.9941C91.001 12.6328 91.0303 12.3398 91.0498 12.1152C91.0693 11.8809 91.0742 11.666 91.0645 11.4707C91.0547 11.2656 91.04 11.0557 91.0205 10.8408C91.0107 10.6162 91.001 10.3281 90.9912 9.97656C90.9912 9.9082 91.0059 9.85449 91.0352 9.81543C91.0645 9.77637 91.0986 9.74707 91.1377 9.72754C91.1865 9.70801 91.2354 9.69336 91.2842 9.68359C91.3428 9.67383 91.3867 9.66895 91.416 9.66895C91.4746 9.66895 91.5332 9.68848 91.5918 9.72754C91.6602 9.7666 91.7188 9.81543 91.7676 9.87402C91.8164 9.93262 91.8555 9.99609 91.8848 10.0645C91.9141 10.123 91.9287 10.1816 91.9287 10.2402L92.0459 12.9795L93.3057 13.0381C93.4717 13.0186 93.623 13.0527 93.7598 13.1406C93.9062 13.2188 93.9844 13.3701 93.9941 13.5947C93.877 13.7217 93.7354 13.7998 93.5693 13.8291C93.4033 13.8486 93.2275 13.8584 93.042 13.8584C92.8662 13.8486 92.6904 13.8486 92.5146 13.8584C92.3389 13.8584 92.1826 13.9023 92.0459 13.9902C92.0459 14.0488 92.0508 14.21 92.0605 14.4736C92.0703 14.7373 92.0801 15.0498 92.0898 15.4111C92.0996 15.7725 92.1094 16.1582 92.1191 16.5684C92.1387 16.9785 92.1533 17.3594 92.1631 17.7109C92.1729 18.0527 92.1777 18.3457 92.1777 18.5898C92.1875 18.834 92.1924 18.9707 92.1924 19C91.9678 19.1367 91.7871 19.127 91.6504 18.9707C91.5137 18.8047 91.4014 18.5654 91.3135 18.2529C91.2354 17.9307 91.1768 17.5596 91.1377 17.1396C91.1084 16.71 91.0889 16.29 91.0791 15.8799C91.0791 15.46 91.084 15.0742 91.0938 14.7227C91.1035 14.3711 91.1182 14.1172 91.1377 13.9609ZM98.8721 18.7363C98.8916 18.4824 98.9111 18.2188 98.9307 17.9453C98.9502 17.6719 98.9648 17.3984 98.9746 17.125C98.9941 16.8516 99.0039 16.583 99.0039 16.3193C99.0137 16.0557 99.0186 15.8164 99.0186 15.6016C99.0186 15.2891 98.9746 14.9912 98.8867 14.708C98.7988 14.4248 98.6719 14.1807 98.5059 13.9756C98.3398 13.7607 98.1299 13.5947 97.876 13.4775C97.6318 13.3506 97.3389 13.2871 96.9971 13.2871C96.8604 13.2871 96.7432 13.2969 96.6455 13.3164C96.5479 13.3359 96.4502 13.3701 96.3525 13.4189C96.2549 13.458 96.1475 13.5117 96.0303 13.5801C95.9131 13.6582 95.7764 13.751 95.6201 13.8584C95.6201 13.8779 95.6152 13.917 95.6055 13.9756C95.6055 14.0244 95.6055 14.0537 95.6055 14.0635C95.6055 14.2783 95.625 14.5664 95.6641 14.9277C95.7129 15.2793 95.7617 15.6504 95.8105 16.041C95.8594 16.4219 95.9082 16.793 95.957 17.1543C96.0059 17.5156 96.0303 17.8086 96.0303 18.0332C96.0303 18.0527 96.0303 18.0918 96.0303 18.1504C96.0303 18.209 96.0254 18.2725 96.0156 18.3408C96.0156 18.4092 96.0156 18.4727 96.0156 18.5312C96.0156 18.5898 96.0156 18.6338 96.0156 18.6631C95.957 18.7998 95.8838 18.8877 95.7959 18.9268C95.7178 18.9561 95.6201 18.9707 95.5029 18.9707C95.3857 18.9902 95.2979 18.9072 95.2393 18.7217C95.1807 18.5361 95.1367 18.2676 95.1074 17.916C95.0781 17.5645 95.0488 17.1396 95.0195 16.6416C95 16.1436 94.9658 15.5967 94.917 15.001C94.8779 14.4053 94.8145 13.7754 94.7266 13.1113C94.6484 12.4375 94.5312 11.749 94.375 11.0459C94.2969 10.7725 94.2334 10.543 94.1846 10.3574C94.1455 10.1621 94.1064 9.99121 94.0674 9.84473C94.0283 9.68848 93.9941 9.53223 93.9648 9.37598C93.9355 9.20996 93.9014 9.01465 93.8623 8.79004V8.73145C93.8623 8.69238 93.8867 8.6582 93.9355 8.62891C93.9844 8.58984 94.0381 8.55566 94.0967 8.52637C94.165 8.49707 94.2285 8.47754 94.2871 8.46777C94.3555 8.44824 94.4092 8.43848 94.4482 8.43848C94.6338 8.92676 94.7803 9.3418 94.8877 9.68359C95.0049 10.0156 95.0977 10.3037 95.166 10.5479C95.2344 10.792 95.2832 10.9971 95.3125 11.1631C95.3418 11.3291 95.3662 11.4902 95.3857 11.6465C95.4053 11.8027 95.4199 11.9639 95.4297 12.1299C95.4395 12.2959 95.459 12.4961 95.4883 12.7305C95.9961 12.418 96.4551 12.2471 96.8652 12.2178C97.2852 12.1885 97.6562 12.252 97.9785 12.4082C98.3008 12.5547 98.5791 12.7842 98.8135 13.0967C99.0576 13.4092 99.2578 13.7607 99.4141 14.1514C99.5703 14.542 99.6875 14.957 99.7656 15.3965C99.8535 15.8359 99.9072 16.2607 99.9268 16.6709C99.9561 17.0811 99.9463 17.4619 99.8975 17.8135C99.8584 18.1553 99.7949 18.4336 99.707 18.6484C99.6191 18.8535 99.502 18.9707 99.3555 19C99.209 19.0391 99.0479 18.9512 98.8721 18.7363ZM106.387 16.627C106.406 16.2852 106.426 15.8994 106.445 15.4697C106.475 15.0303 106.509 14.5957 106.548 14.166C106.587 13.7266 106.631 13.3066 106.68 12.9062C106.729 12.4961 106.787 12.1396 106.855 11.8369C106.924 11.5342 106.997 11.2998 107.075 11.1338C107.173 10.9678 107.271 10.9141 107.368 10.9727C107.505 10.9922 107.593 11.0996 107.632 11.2949C107.671 11.4902 107.681 11.749 107.661 12.0713C107.651 12.3936 107.617 12.7598 107.559 13.1699C107.5 13.5801 107.441 14 107.383 14.4297C107.334 14.8594 107.29 15.2891 107.251 15.7188C107.212 16.1387 107.202 16.5244 107.222 16.876C107.222 16.9736 107.236 17.0811 107.266 17.1982C107.305 17.3057 107.354 17.4082 107.412 17.5059C107.471 17.6035 107.544 17.6914 107.632 17.7695C107.729 17.8477 107.832 17.8867 107.939 17.8867L110.884 18.1504C110.972 18.1602 111.021 18.209 111.03 18.2969C111.05 18.3848 111.06 18.4531 111.06 18.502C111.06 18.6777 111.006 18.7949 110.898 18.8535C110.791 18.9121 110.649 18.9609 110.474 19C110.435 19 110.361 19 110.254 19C110.156 19.0098 110.049 19.0146 109.932 19.0146C109.824 19.0244 109.722 19.0293 109.624 19.0293C109.526 19.0293 109.458 19.0293 109.419 19.0293C108.97 19.0293 108.555 18.9951 108.174 18.9268C107.803 18.8584 107.485 18.7363 107.222 18.5605C106.958 18.375 106.753 18.1309 106.606 17.8281C106.46 17.5156 106.387 17.1152 106.387 16.627ZM111.587 16.0117C111.587 15.4746 111.704 15.0059 111.938 14.6055C112.173 14.2051 112.48 13.8682 112.861 13.5947C113.242 13.3213 113.667 13.1211 114.136 12.9941C114.614 12.8574 115.093 12.7891 115.571 12.7891C115.825 12.7891 116.06 12.8379 116.274 12.9355C116.499 13.0234 116.709 13.1504 116.904 13.3164C117.109 13.4727 117.29 13.6582 117.446 13.873C117.603 14.0781 117.734 14.293 117.842 14.5176C117.959 14.7422 118.047 14.9717 118.105 15.2061C118.164 15.4307 118.193 15.6504 118.193 15.8652C118.193 16.3633 118.096 16.8076 117.9 17.1982C117.705 17.5889 117.441 17.9209 117.109 18.1943C116.777 18.458 116.401 18.6631 115.981 18.8096C115.562 18.9463 115.132 19.0146 114.692 19.0146C114.243 19.0146 113.828 18.9463 113.447 18.8096C113.076 18.6631 112.749 18.4629 112.466 18.209C112.192 17.9551 111.978 17.6426 111.821 17.2715C111.665 16.8906 111.587 16.4707 111.587 16.0117ZM112.305 15.8945C112.305 16.1973 112.358 16.4902 112.466 16.7734C112.583 17.0469 112.739 17.2861 112.935 17.4912C113.14 17.6963 113.379 17.8623 113.652 17.9893C113.926 18.1064 114.219 18.165 114.531 18.165C114.697 18.1846 114.897 18.1602 115.132 18.0918C115.376 18.0137 115.615 17.9062 115.85 17.7695C116.094 17.623 116.323 17.4521 116.538 17.2568C116.763 17.0518 116.948 16.832 117.095 16.5977C117.241 16.3535 117.329 16.1045 117.358 15.8506C117.397 15.5869 117.354 15.3281 117.227 15.0742C117.109 14.8105 116.89 14.5615 116.567 14.3271C116.245 14.083 115.801 13.8584 115.234 13.6533C114.912 13.6533 114.575 13.7021 114.224 13.7998C113.882 13.8877 113.569 14.0244 113.286 14.21C113.003 14.3955 112.769 14.6299 112.583 14.9131C112.397 15.1963 112.305 15.5234 112.305 15.8945ZM118.765 13.7852C118.774 13.7559 118.789 13.7217 118.809 13.6826C118.828 13.6338 118.853 13.585 118.882 13.5361C118.921 13.4873 118.955 13.4482 118.984 13.4189C119.023 13.3799 119.067 13.3604 119.116 13.3604C119.126 13.3604 119.131 13.3652 119.131 13.375C119.131 13.375 119.141 13.375 119.16 13.375H119.189C119.414 13.4824 119.6 13.6387 119.746 13.8438C119.893 14.0391 120.02 14.2637 120.127 14.5176C120.244 14.7715 120.352 15.0449 120.449 15.3379C120.547 15.6211 120.654 15.9043 120.771 16.1875C120.898 16.4609 121.045 16.7295 121.211 16.9932C121.377 17.2568 121.587 17.4912 121.841 17.6963C121.929 17.4033 122.017 17.1201 122.104 16.8467C122.192 16.5635 122.29 16.2803 122.397 15.9971C122.515 15.7139 122.646 15.4209 122.793 15.1182C122.949 14.8154 123.125 14.4883 123.32 14.1367C123.555 14.0391 123.74 13.9805 123.877 13.9609C124.023 13.9414 124.126 13.9609 124.185 14.0195C124.243 14.0684 124.253 14.1465 124.214 14.2539C124.175 14.3613 124.092 14.4883 123.965 14.6348C123.887 14.7031 123.794 14.8594 123.687 15.1035C123.589 15.3477 123.481 15.6357 123.364 15.9678C123.247 16.2998 123.12 16.6465 122.983 17.0078C122.856 17.3691 122.725 17.7012 122.588 18.0039C122.451 18.2969 122.314 18.541 122.178 18.7363C122.051 18.9316 121.924 19.0244 121.797 19.0146C121.66 19.0146 121.504 18.9121 121.328 18.707C121.162 18.4922 120.981 18.2188 120.786 17.8867C120.591 17.5547 120.396 17.1934 120.2 16.8027C120.005 16.4023 119.814 16.0068 119.629 15.6162C119.453 15.2256 119.287 14.8691 119.131 14.5469C118.984 14.2148 118.862 13.9609 118.765 13.7852ZM124.741 15.0742C124.741 14.5664 124.814 14.083 124.961 13.624C125.117 13.1553 125.337 12.7451 125.62 12.3936C125.913 12.042 126.265 11.7637 126.675 11.5586C127.095 11.3438 127.578 11.2363 128.125 11.2363C128.447 11.2754 128.726 11.3633 128.96 11.5C129.204 11.6367 129.399 11.8076 129.546 12.0127C129.702 12.208 129.814 12.4375 129.883 12.7012C129.941 12.9551 129.971 13.2285 129.971 13.5215C129.971 13.873 129.868 14.1904 129.663 14.4736C129.458 14.7568 129.199 14.9961 128.887 15.1914C128.574 15.377 128.237 15.5234 127.876 15.6309C127.515 15.7285 127.178 15.7773 126.865 15.7773C126.748 15.7773 126.626 15.7773 126.499 15.7773C126.382 15.7773 126.274 15.7578 126.177 15.7188C126.079 15.6797 126.001 15.6211 125.942 15.543C125.884 15.4648 125.854 15.3477 125.854 15.1914C125.854 15.1426 125.859 15.1035 125.869 15.0742C125.889 15.0352 125.933 15.0107 126.001 15.001C126.069 14.9814 126.172 14.9766 126.309 14.9863C126.445 15.0059 126.631 15.0352 126.865 15.0742C127.002 15.0742 127.197 15.0303 127.451 14.9424C127.715 14.8447 127.979 14.7227 128.242 14.5762C128.516 14.4297 128.75 14.2637 128.945 14.0781C129.141 13.8828 129.238 13.6924 129.238 13.5068C129.238 13.3115 129.204 13.1211 129.136 12.9355C129.077 12.7402 128.984 12.5693 128.857 12.4229C128.73 12.2764 128.579 12.1592 128.403 12.0713C128.237 11.9834 128.047 11.9492 127.832 11.9688C127.49 11.998 127.178 12.0908 126.895 12.2471C126.621 12.4033 126.387 12.6084 126.191 12.8623C125.996 13.1064 125.845 13.3799 125.737 13.6826C125.63 13.9854 125.576 14.3027 125.576 14.6348C125.576 14.8887 125.581 15.1426 125.591 15.3965C125.601 15.6504 125.635 15.8994 125.693 16.1436C125.762 16.3877 125.864 16.6221 126.001 16.8467C126.147 17.0713 126.353 17.2715 126.616 17.4473C126.89 17.6133 127.231 17.7549 127.642 17.8721C128.052 17.9795 128.56 18.0479 129.165 18.0771L131.787 17.9014C131.631 18.1162 131.431 18.292 131.187 18.4287C130.952 18.5654 130.698 18.6777 130.425 18.7656C130.161 18.8438 129.897 18.9023 129.634 18.9414C129.37 18.9805 129.121 19 128.887 19C128.32 19 127.788 18.9072 127.29 18.7217C126.792 18.5361 126.353 18.2773 125.972 17.9453C125.591 17.6035 125.288 17.1934 125.063 16.7148C124.849 16.2266 124.741 15.6797 124.741 15.0742Z" fill="#3A230B"/>
<defs>
<clipPath id="clip0_14_4">
<rect width="30" height="30" fill="white"/>
</clipPath>
</defs>
</svg>
