<svg width="24" height="24" viewBox="0 0 24 24" fill="none" xmlns="http://www.w3.org/2000/svg">
<path d="M22.1775 8.50963H21.3235L17.5001 1.29828C17.3182 0.955158 16.8925 0.824611 16.5494 1.00635C16.2063 1.18827 16.0756 1.61389 16.2575 1.95702L19.7317 8.50953H4.3703L7.84448 1.95702C8.02641 1.61389 7.89572 1.18827 7.55259 1.00635C7.20952 0.82447 6.78384 0.955158 6.60192 1.29828L2.77852 8.50963H1.82255C0.817594 8.50963 0 9.32722 0 10.3322C0 11.3371 0.817594 12.1547 1.82255 12.1547H1.87312C1.87467 12.1648 1.87584 12.1748 1.87762 12.1849L3.34406 20.4074C3.61983 21.9535 4.95984 23.0757 6.53034 23.0757H17.5716C19.1421 23.0757 20.4821 21.9535 20.7578 20.4074L22.2243 12.1849C22.2262 12.1744 22.2274 12.1639 22.229 12.1535C23.2102 12.1259 24 11.3198 24 10.3322C24 9.32717 23.1824 8.50963 22.1775 8.50963ZM19.3734 20.1605C19.2175 21.0348 18.4597 21.6694 17.5716 21.6694H6.53039C5.6423 21.6694 4.88456 21.0349 4.72861 20.1605L3.30089 12.1547H20.8012L19.3734 20.1605ZM22.1775 10.7483H1.82255C1.59305 10.7483 1.40639 10.5617 1.40639 10.3322C1.40639 10.1027 1.59305 9.91597 1.82255 9.91597H22.1775C22.4069 9.91597 22.5936 10.1026 22.5936 10.3322C22.5936 10.5617 22.407 10.7483 22.1775 10.7483Z" fill="white"/>
<path d="M11.9696 13.1304C11.5812 13.1304 11.2664 13.4452 11.2664 13.8335V19.9906C11.2664 20.379 11.5813 20.6938 11.9696 20.6938C12.3579 20.6938 12.6728 20.3789 12.6728 19.9906V13.8335C12.6728 13.4452 12.3579 13.1304 11.9696 13.1304Z" fill="white"/>
<path d="M9.57038 19.874L8.53332 13.7169C8.46886 13.3339 8.10568 13.0757 7.72308 13.1403C7.34011 13.2048 7.08197 13.5675 7.14647 13.9505L8.18358 20.1076C8.24143 20.451 8.53913 20.6941 8.87611 20.6941C8.91493 20.6941 8.95425 20.6909 8.99372 20.6842C9.37674 20.6197 9.63488 20.257 9.57038 19.874Z" fill="white"/>
<path d="M16.167 13.1402C15.7844 13.076 15.4213 13.3338 15.3567 13.7168L14.3197 19.8739C14.2552 20.2568 14.5134 20.6196 14.8963 20.6841C14.9358 20.6908 14.9751 20.694 15.0139 20.694C15.351 20.694 15.6487 20.4509 15.7065 20.1075L16.7435 13.9504C16.8081 13.5674 16.5499 13.2047 16.167 13.1402Z" fill="white"/>
</svg>
