<svg width="20" height="20" viewBox="0 0 20 20" fill="none" xmlns="http://www.w3.org/2000/svg">
<path d="M16.6387 3.47738C15.1119 1.26762 12.6921 0 10.0002 0C7.3084 0 4.8886 1.26762 3.36176 3.47738C1.84243 5.67598 1.49161 8.45945 2.42145 10.9186C2.67016 11.5902 3.06551 12.2427 3.59371 12.8541L9.46786 19.7538C9.60071 19.91 9.79536 20 10.0002 20C10.2051 20 10.3998 19.91 10.5326 19.7538L16.4051 12.8559C16.9357 12.241 17.3305 11.5893 17.5772 10.9231C18.5089 8.45945 18.1581 5.67598 16.6387 3.47738ZM16.2676 10.4333C16.0774 10.9473 15.7669 11.4555 15.3452 11.9443C15.3441 11.9454 15.3429 11.9466 15.342 11.948L10.0002 18.2221L4.65524 11.9441C4.23379 11.4557 3.92329 10.9476 3.73121 10.4287C2.96223 8.39488 3.25407 6.09348 4.51211 4.27273C5.77411 2.44617 7.77457 1.39859 10.0002 1.39859C12.2259 1.39859 14.2261 2.44613 15.4881 4.27273C16.7464 6.09348 17.0385 8.39488 16.2676 10.4333Z" fill="#3A230B"/>
<path d="M10.0002 4.14893C7.84101 4.14893 6.08414 5.90557 6.08414 8.06502C6.08414 10.2245 7.84078 11.9811 10.0002 11.9811C12.1597 11.9811 13.9163 10.2245 13.9163 8.06502C13.9163 5.9058 12.1595 4.14893 10.0002 4.14893ZM10.0002 10.5825C8.61211 10.5825 7.48273 9.45311 7.48273 8.06498C7.48273 6.67686 8.61211 5.54748 10.0002 5.54748C11.3884 5.54748 12.5177 6.67686 12.5177 8.06498C12.5177 9.45311 11.3884 10.5825 10.0002 10.5825Z" fill="#3A230B"/>
</svg>
