<svg width="78" height="78" viewBox="0 0 78 78" fill="none" xmlns="http://www.w3.org/2000/svg">
<circle cx="39" cy="39" r="38.5" stroke="url(#paint0_linear_588_513)"/>
<path d="M45.7072 22.9521C42.8942 22.1094 40.034 22.0063 37.6536 22.6612C35.1683 23.3451 33.4851 24.7721 32.914 26.6796C32.3423 28.5871 32.964 30.7047 34.6644 32.6422C36.2929 34.498 38.7388 35.9837 41.5514 36.8259C43.1517 37.3052 44.7388 37.532 46.2264 37.532C50.2307 37.532 53.509 35.8873 54.3449 33.0982C55.49 29.2736 51.6152 24.7219 45.7072 22.9521ZM53.1329 32.7353C52.1868 35.8922 47.1543 37.1837 41.9144 35.614C39.3264 34.839 37.0892 33.4873 35.6152 31.8077C34.2129 30.2098 33.6838 28.5176 34.1259 27.0427C34.5674 25.5679 35.9394 24.4452 37.9892 23.8812C38.9157 23.6263 39.9264 23.4996 40.9839 23.4996C42.3856 23.4996 43.8688 23.7223 45.3441 24.1641C50.5841 25.7337 54.078 29.5789 53.1329 32.7353Z" fill="url(#paint1_linear_588_513)"/>
<path d="M48.4797 32.0457C48.3695 31.7141 48.0118 31.5346 47.6799 31.6447C44.0031 32.8656 41.2209 32.0397 39.1747 29.1197C38.9741 28.8336 38.5795 28.7641 38.2936 28.9648C38.0075 29.1653 37.938 29.5597 38.1385 29.8459C39.8233 32.25 41.9944 33.457 44.6185 33.457C45.6963 33.457 46.8505 33.2535 48.0786 32.8456C48.4103 32.7355 48.5898 32.3774 48.4797 32.0457Z" fill="url(#paint2_linear_588_513)"/>
<path d="M30.1382 18L29.3087 18.9554C31.1882 20.5871 32.924 22.5139 34.4678 24.6819L35.4985 23.9481C33.8966 21.6986 32.0932 19.6973 30.1382 18Z" fill="#F09F0B"/>
<path d="M26.8394 22.3662L26.5988 23.6083C29.0452 24.0825 31.5114 24.8832 33.9293 25.9886L34.4553 24.8378C31.9464 23.6909 29.384 22.8593 26.8394 22.3662Z" fill="#F09F0B"/>
<path d="M61.1954 26.5913C58.628 26.9346 56.0213 27.615 53.4478 28.6134L53.9055 29.7929C56.3859 28.8306 58.895 28.1753 61.3632 27.8452L61.1954 26.5913Z" fill="#DC740A"/>
<path d="M54.0039 29.4507L53.8103 30.7011C56.4413 31.1084 58.9418 31.7952 61.2423 32.7428L61.7242 31.573C59.3313 30.5872 56.7338 29.8732 54.0039 29.4507Z" fill="#DC740A"/>
<path d="M44.0963 36.9304L42.5686 51.0295C36.3329 49.3444 30.9321 46.3385 26.4969 42.0845L36.2914 32.9953L35.4309 32.0679L24.6665 42.0569L25.1333 42.5212C29.9825 47.3447 35.9816 50.6819 42.9639 52.4402L43.6689 52.6179L45.3541 37.0668L44.0963 36.9304Z" fill="url(#paint3_linear_588_513)"/>
<path d="M38.714 50.9083L37.689 55.7646C37.5489 56.4264 36.8797 56.8491 36.1977 56.7074C35.8627 56.6376 35.5756 56.4424 35.3898 56.1577C35.2123 55.8858 35.1507 55.5655 35.2165 55.2549L36.3883 49.7053L35.1504 49.4438L33.9788 54.9932C33.8429 55.6347 33.9679 56.294 34.3306 56.8495C34.7016 57.4178 35.2733 57.8072 35.9402 57.946C36.1155 57.9824 36.2904 57.9999 36.4626 57.9999C37.6302 57.9999 38.6794 57.1955 38.9269 56.0263L39.9521 51.1695L38.714 50.9083Z" fill="#E48609"/>
<path d="M30.7743 46.5153C30.6827 46.6342 30.5681 46.7361 30.435 46.817L25.4647 49.8205C24.8661 50.182 24.085 49.9896 23.7236 49.3913C23.3617 48.7925 23.5542 48.0111 24.1528 47.6494L28.2734 45.1584L27.6188 44.0757L23.4982 46.5665C22.3027 47.289 21.9179 48.8498 22.6405 50.0455C23.1158 50.8324 23.954 51.2679 24.8126 51.2679C25.2584 51.2679 25.71 51.1504 26.119 50.9037L31.0912 47.8989C31.3593 47.7356 31.5901 47.5298 31.7768 47.2872L30.7743 46.5153Z" fill="#ED9A09"/>
<path d="M25.9978 32.7517C26.2398 32.6045 26.5303 32.5673 26.8166 32.6472L34.1667 34.697L34.5066 33.4783L27.1567 31.4284C26.5293 31.2534 25.8841 31.3396 25.3398 31.6712C24.7966 32.0022 24.4249 32.5346 24.2931 33.1703C24.0288 34.4478 24.8381 35.7729 26.097 36.1243L30.986 37.4875L31.3259 36.2686L26.4372 34.9056C25.8166 34.7324 25.4023 34.0546 25.5322 33.4259C25.5919 33.1378 25.7573 32.8983 25.9978 32.7517Z" fill="#ED9A09"/>
<path d="M50.3487 44.2998L45.0323 38.8262L44.1248 39.7077L49.4415 45.1815C49.6483 45.3942 49.7548 45.6672 49.7412 45.9501C49.7275 46.2317 49.5963 46.4917 49.3719 46.6819C48.8818 47.0971 48.0886 47.0574 47.6398 46.5946L44.3904 43.2504L43.483 44.1321L46.7322 47.476C47.219 47.9778 47.889 48.2333 48.5595 48.2333C49.1426 48.2333 49.7264 48.04 50.1898 47.6474C50.6848 47.2278 50.9742 46.6467 51.0049 46.0111C51.0356 45.3743 50.8025 44.7663 50.3487 44.2998Z" fill="#DD760A"/>
<path d="M29.0071 38.6968L28.1947 39.6667C32.8122 43.5336 37.8993 46.4536 43.3149 48.3457L43.7321 47.1513C38.4613 45.3097 33.5071 42.4653 29.0071 38.6968Z" fill="url(#paint4_linear_588_513)"/>
<path d="M54.7612 30.4033L53.8389 31.2695C55.6598 33.2085 57.207 35.2898 58.4372 37.4556L59.5374 36.8306C58.2575 34.5776 56.6506 32.4152 54.7612 30.4033Z" fill="#DD750A"/>
<path d="M33.4154 25.6001C30.7095 26.1541 28.1494 26.9935 25.8067 28.0948L26.3449 29.2399C28.597 28.181 31.0614 27.3735 33.6691 26.8395L33.4154 25.6001Z" fill="#F09F0B"/>
<path d="M42.2711 26.9785H42.1977C41.8483 26.9785 41.5651 27.2618 41.5651 27.6112C41.5651 27.9605 41.8483 28.2438 42.1977 28.2438H42.2711C42.6205 28.2438 42.9038 27.9605 42.9038 27.6112C42.9037 27.2618 42.6205 26.9785 42.2711 26.9785Z" fill="#E89008"/>
<path d="M46.0831 28.1201H46.0099C45.6606 28.1201 45.3773 28.4034 45.3773 28.7528C45.3773 29.1021 45.6606 29.3854 46.0099 29.3854H46.0831C46.4325 29.3854 46.7158 29.1021 46.7158 28.7528C46.7158 28.4034 46.4325 28.1201 46.0831 28.1201Z" fill="#E1800A"/>
<defs>
<linearGradient id="paint0_linear_588_513" x1="0" y1="39" x2="78" y2="39" gradientUnits="userSpaceOnUse">
<stop stop-color="#F3A50C"/>
<stop offset="1" stop-color="#DA6F0B"/>
</linearGradient>
<linearGradient id="paint1_linear_588_513" x1="32.707" y1="29.8837" x2="54.5455" y2="29.8837" gradientUnits="userSpaceOnUse">
<stop stop-color="#F3A50C"/>
<stop offset="0.390871" stop-color="#EA9508"/>
<stop offset="1" stop-color="#DA6E0B"/>
</linearGradient>
<linearGradient id="paint2_linear_588_513" x1="38.0239" y1="31.1535" x2="48.5121" y2="31.1535" gradientUnits="userSpaceOnUse">
<stop stop-color="#F3A50C"/>
<stop offset="0.390871" stop-color="#EA9508"/>
<stop offset="1" stop-color="#DA6E0B"/>
</linearGradient>
<linearGradient id="paint3_linear_588_513" x1="24.6665" y1="42.3429" x2="45.3541" y2="42.3429" gradientUnits="userSpaceOnUse">
<stop stop-color="#F3A50C"/>
<stop offset="0.390871" stop-color="#EA9508"/>
<stop offset="1" stop-color="#DA6E0B"/>
</linearGradient>
<linearGradient id="paint4_linear_588_513" x1="28.1947" y1="43.5212" x2="43.7321" y2="43.5212" gradientUnits="userSpaceOnUse">
<stop stop-color="#F3A50C"/>
<stop offset="0.390871" stop-color="#EA9508"/>
<stop offset="1" stop-color="#DA6E0B"/>
</linearGradient>
</defs>
</svg>
