<svg width="78" height="78" viewBox="0 0 78 78" fill="none" xmlns="http://www.w3.org/2000/svg">
<circle cx="39" cy="39" r="38.5" stroke="url(#paint0_linear_588_512)"/>
<g clip-path="url(#clip0_588_512)">
<path d="M52.929 20.4716C52.8824 20.3003 52.7663 20.1561 52.6088 20.0741C52.298 19.9096 51.9127 20.0282 51.7482 20.339C51.7477 20.3398 51.7473 20.3406 51.7469 20.3414C51.7469 20.359 48.521 26.6174 38.6181 27.7079C37.3263 27.8457 36.0636 28.1828 34.875 28.707C32.7475 29.632 30.9904 31.2418 29.8831 33.2803C28.8494 35.1952 28.4212 37.3788 28.6554 39.5422C28.8278 41.1193 29.3545 42.637 30.1962 43.9818C28.4372 45.2447 22.8578 49.6105 22.3548 54.2963C22.3178 54.646 22.5715 54.9595 22.9212 54.9964C23.2709 55.0333 23.5843 54.7797 23.6212 54.43C24.0821 50.2472 29.3167 46.1911 30.949 45.0161C32.9085 47.4223 35.8425 48.7802 38.991 49.0019C41.1101 49.1386 43.2317 48.7773 45.186 47.9465C47.3075 47.0564 49.1812 45.6644 50.6458 43.8903C54.4206 39.3171 56.2182 31.6304 52.929 20.4716ZM31.3149 43.3521C31.0722 42.9698 30.8582 42.57 30.6746 42.156C30.2884 41.2824 30.0392 40.3546 29.9359 39.405C29.7204 37.4996 30.0884 35.5736 30.9912 33.8819C31.9671 32.0883 33.5151 30.6728 35.3886 29.8609C36.4598 29.3945 37.5966 29.0967 38.7588 28.9779C45.2951 28.2743 49.1402 25.365 51.1243 23.2543C49.9585 27.0922 47.9515 30.6219 45.2494 33.5864L44.8624 29.6885C44.8427 29.3374 44.5421 29.0687 44.191 29.0884C43.8399 29.1081 43.5712 29.4088 43.5909 29.7598C43.5919 29.7772 43.5936 29.7945 43.5959 29.8116L44.092 34.8212C41.1334 37.8219 37.021 40.8368 31.3149 43.3521ZM49.6608 43.0742V43.0777C48.33 44.698 46.6253 45.9705 44.6935 46.7856C42.9171 47.5363 40.989 47.8593 39.0649 47.7284C36.3862 47.5927 33.8726 46.3934 32.0818 44.3969C34.1804 43.4683 36.2095 42.3902 38.1537 41.171L43.7437 42.2264C44.0911 42.2808 44.4168 42.0433 44.4713 41.6959C44.5238 41.3608 44.3044 41.0433 43.9724 40.974L39.677 40.1614C41.6603 38.7992 43.5065 37.2475 45.1896 35.5283C45.2204 35.5017 45.2487 35.4722 45.274 35.4403C49.7136 30.8178 51.6027 26.2445 52.3907 23.4301C54.5648 32.7034 52.9008 39.1552 49.6608 43.0742Z" fill="url(#paint1_linear_588_512)"/>
</g>
<defs>
<linearGradient id="paint0_linear_588_512" x1="0" y1="39" x2="78" y2="39" gradientUnits="userSpaceOnUse">
<stop stop-color="#F3A50C"/>
<stop offset="1" stop-color="#DA6F0B"/>
</linearGradient>
<linearGradient id="paint1_linear_588_512" x1="22.3512" y1="37.5" x2="54.6488" y2="37.5" gradientUnits="userSpaceOnUse">
<stop stop-color="#F3A50C"/>
<stop offset="0.390871" stop-color="#EA9508"/>
<stop offset="1" stop-color="#DA6E0B"/>
</linearGradient>
<clipPath id="clip0_588_512">
<rect width="35" height="35" fill="white" transform="translate(21 20)"/>
</clipPath>
</defs>
</svg>
